<svg width="197" height="194" viewBox="0 0 197 194" fill="none" xmlns="http://www.w3.org/2000/svg">
<path d="M9.38095 4.6981C9.38095 7.29279 7.28095 9.3962 4.69047 9.3962C2.1 9.3962 0 7.29279 0 4.6981C0 2.10341 2.1 0 4.69047 0C7.28095 0 9.38095 2.10341 9.38095 4.6981Z" fill="#5E9292"/>
<path d="M28.1428 4.6981C28.1428 7.29279 26.0428 9.3962 23.4524 9.3962C20.8619 9.3962 18.7619 7.29279 18.7619 4.6981C18.7619 2.10341 20.8619 0 23.4524 0C26.0428 0 28.1428 2.10341 28.1428 4.6981Z" fill="#5E9292"/>
<path d="M46.9046 4.6981C46.9046 7.29279 44.8046 9.3962 42.2141 9.3962C39.6237 9.3962 37.5237 7.29279 37.5237 4.6981C37.5237 2.10341 39.6237 0 42.2141 0C44.8046 0 46.9046 2.10341 46.9046 4.6981Z" fill="#5E9292"/>
<path d="M65.6666 4.6981C65.6666 7.29279 63.5666 9.3962 60.9762 9.3962C58.3857 9.3962 56.2857 7.29279 56.2857 4.6981C56.2857 2.10341 58.3857 0 60.9762 0C63.5666 0 65.6666 2.10341 65.6666 4.6981Z" fill="#5E9292"/>
<path d="M84.4286 4.6981C84.4286 7.29279 82.3286 9.3962 79.7382 9.3962C77.1477 9.3962 75.0477 7.29279 75.0477 4.6981C75.0477 2.10341 77.1477 0 79.7382 0C82.3286 0 84.4286 2.10341 84.4286 4.6981Z" fill="#5E9292"/>
<path d="M103.19 4.6981C103.19 7.29279 101.09 9.3962 98.4998 9.3962C95.9093 9.3962 93.8093 7.29279 93.8093 4.6981C93.8093 2.10341 95.9093 0 98.4998 0C101.09 0 103.19 2.10341 103.19 4.6981Z" fill="#5E9292"/>
<path d="M121.952 4.6981C121.952 7.29279 119.852 9.3962 117.262 9.3962C114.671 9.3962 112.571 7.29279 112.571 4.6981C112.571 2.10341 114.671 0 117.262 0C119.852 0 121.952 2.10341 121.952 4.6981Z" fill="#5E9292"/>
<path d="M140.714 4.6981C140.714 7.29279 138.614 9.3962 136.024 9.3962C133.433 9.3962 131.333 7.29279 131.333 4.6981C131.333 2.10341 133.433 0 136.024 0C138.614 0 140.714 2.10341 140.714 4.6981Z" fill="#5E9292"/>
<path d="M159.476 4.6981C159.476 7.29279 157.376 9.3962 154.786 9.3962C152.195 9.3962 150.095 7.29279 150.095 4.6981C150.095 2.10341 152.195 0 154.786 0C157.376 0 159.476 2.10341 159.476 4.6981Z" fill="#5E9292"/>
<path d="M178.238 4.6981C178.238 7.29279 176.138 9.3962 173.548 9.3962C170.957 9.3962 168.857 7.29279 168.857 4.6981C168.857 2.10341 170.957 0 173.548 0C176.138 0 178.238 2.10341 178.238 4.6981Z" fill="#5E9292"/>
<path d="M197 4.6981C197 7.29279 194.9 9.3962 192.31 9.3962C189.719 9.3962 187.619 7.29279 187.619 4.6981C187.619 2.10341 189.719 0 192.31 0C194.9 0 197 2.10341 197 4.6981Z" fill="#5E9292"/>
<path d="M9.38095 23.1585C9.38095 25.7532 7.28095 27.8566 4.69047 27.8566C2.1 27.8566 0 25.7532 0 23.1585C0 20.5638 2.1 18.4604 4.69047 18.4604C7.28095 18.4604 9.38095 20.5638 9.38095 23.1585Z" fill="#5E9292"/>
<path d="M28.1428 23.1585C28.1428 25.7532 26.0428 27.8566 23.4524 27.8566C20.8619 27.8566 18.7619 25.7532 18.7619 23.1585C18.7619 20.5638 20.8619 18.4604 23.4524 18.4604C26.0428 18.4604 28.1428 20.5638 28.1428 23.1585Z" fill="#5E9292"/>
<path d="M46.9046 23.1584C46.9046 25.7531 44.8046 27.8565 42.2141 27.8565C39.6237 27.8565 37.5237 25.7531 37.5237 23.1584C37.5237 20.5637 39.6237 18.4603 42.2141 18.4603C44.8046 18.4603 46.9046 20.5637 46.9046 23.1584Z" fill="#5E9292"/>
<path d="M65.6666 23.1584C65.6666 25.7531 63.5666 27.8565 60.9762 27.8565C58.3857 27.8565 56.2857 25.7531 56.2857 23.1584C56.2857 20.5637 58.3857 18.4603 60.9762 18.4603C63.5666 18.4603 65.6666 20.5637 65.6666 23.1584Z" fill="#5E9292"/>
<path d="M84.4286 23.1584C84.4286 25.7531 82.3286 27.8565 79.7382 27.8565C77.1477 27.8565 75.0477 25.7531 75.0477 23.1584C75.0477 20.5637 77.1477 18.4603 79.7382 18.4603C82.3286 18.4603 84.4286 20.5637 84.4286 23.1584Z" fill="#5E9292"/>
<path d="M103.19 23.1584C103.19 25.7531 101.09 27.8565 98.4998 27.8565C95.9093 27.8565 93.8093 25.7531 93.8093 23.1584C93.8093 20.5637 95.9093 18.4603 98.4998 18.4603C101.09 18.4603 103.19 20.5637 103.19 23.1584Z" fill="#5E9292"/>
<path d="M121.952 23.1584C121.952 25.7531 119.852 27.8565 117.262 27.8565C114.671 27.8565 112.571 25.7531 112.571 23.1584C112.571 20.5637 114.671 18.4603 117.262 18.4603C119.852 18.4603 121.952 20.5637 121.952 23.1584Z" fill="#5E9292"/>
<path d="M140.714 23.1584C140.714 25.7531 138.614 27.8565 136.024 27.8565C133.433 27.8565 131.333 25.7531 131.333 23.1584C131.333 20.5637 133.433 18.4603 136.024 18.4603C138.614 18.4603 140.714 20.5637 140.714 23.1584Z" fill="#5E9292"/>
<path d="M159.476 23.1584C159.476 25.7531 157.376 27.8565 154.786 27.8565C152.195 27.8565 150.095 25.7531 150.095 23.1584C150.095 20.5637 152.195 18.4603 154.786 18.4603C157.376 18.4603 159.476 20.5637 159.476 23.1584Z" fill="#5E9292"/>
<path d="M178.238 23.1584C178.238 25.7531 176.138 27.8565 173.548 27.8565C170.957 27.8565 168.857 25.7531 168.857 23.1584C168.857 20.5637 170.957 18.4603 173.548 18.4603C176.138 18.4603 178.238 20.5637 178.238 23.1584Z" fill="#5E9292"/>
<path d="M197 23.1584C197 25.7531 194.9 27.8565 192.31 27.8565C189.719 27.8565 187.619 25.7531 187.619 23.1584C187.619 20.5637 189.719 18.4603 192.31 18.4603C194.9 18.4603 197 20.5637 197 23.1584Z" fill="#5E9292"/>
<path d="M9.38095 41.6189C9.38095 44.2135 7.28095 46.317 4.69047 46.317C2.1 46.317 0 44.2135 0 41.6189C0 39.0242 2.1 36.9208 4.69047 36.9208C7.28095 36.9208 9.38095 39.0242 9.38095 41.6189Z" fill="#5E9292"/>
<path d="M28.1428 41.6189C28.1428 44.2135 26.0428 46.317 23.4524 46.317C20.8619 46.317 18.7619 44.2135 18.7619 41.6189C18.7619 39.0242 20.8619 36.9208 23.4524 36.9208C26.0428 36.9208 28.1428 39.0242 28.1428 41.6189Z" fill="#5E9292"/>
<path d="M46.9046 41.6187C46.9046 44.2134 44.8046 46.3168 42.2141 46.3168C39.6237 46.3168 37.5237 44.2134 37.5237 41.6187C37.5237 39.024 39.6237 36.9206 42.2141 36.9206C44.8046 36.9206 46.9046 39.024 46.9046 41.6187Z" fill="#5E9292"/>
<path d="M65.6666 41.6187C65.6666 44.2134 63.5666 46.3168 60.9762 46.3168C58.3857 46.3168 56.2857 44.2134 56.2857 41.6187C56.2857 39.024 58.3857 36.9206 60.9762 36.9206C63.5666 36.9206 65.6666 39.024 65.6666 41.6187Z" fill="#5E9292"/>
<path d="M84.4286 41.6187C84.4286 44.2134 82.3286 46.3168 79.7382 46.3168C77.1477 46.3168 75.0477 44.2134 75.0477 41.6187C75.0477 39.024 77.1477 36.9206 79.7382 36.9206C82.3286 36.9206 84.4286 39.024 84.4286 41.6187Z" fill="#5E9292"/>
<path d="M103.19 41.6187C103.19 44.2134 101.09 46.3168 98.4998 46.3168C95.9093 46.3168 93.8093 44.2134 93.8093 41.6187C93.8093 39.024 95.9093 36.9206 98.4998 36.9206C101.09 36.9206 103.19 39.024 103.19 41.6187Z" fill="#5E9292"/>
<path d="M121.952 41.6187C121.952 44.2134 119.852 46.3168 117.262 46.3168C114.671 46.3168 112.571 44.2134 112.571 41.6187C112.571 39.024 114.671 36.9206 117.262 36.9206C119.852 36.9206 121.952 39.024 121.952 41.6187Z" fill="#5E9292"/>
<path d="M140.714 41.6187C140.714 44.2134 138.614 46.3168 136.024 46.3168C133.433 46.3168 131.333 44.2134 131.333 41.6187C131.333 39.024 133.433 36.9206 136.024 36.9206C138.614 36.9206 140.714 39.024 140.714 41.6187Z" fill="#5E9292"/>
<path d="M159.476 41.6187C159.476 44.2134 157.376 46.3168 154.786 46.3168C152.195 46.3168 150.095 44.2134 150.095 41.6187C150.095 39.024 152.195 36.9206 154.786 36.9206C157.376 36.9206 159.476 39.024 159.476 41.6187Z" fill="#5E9292"/>
<path d="M178.238 41.6187C178.238 44.2134 176.138 46.3168 173.548 46.3168C170.957 46.3168 168.857 44.2134 168.857 41.6187C168.857 39.024 170.957 36.9206 173.548 36.9206C176.138 36.9206 178.238 39.024 178.238 41.6187Z" fill="#5E9292"/>
<path d="M197 41.6187C197 44.2134 194.9 46.3168 192.31 46.3168C189.719 46.3168 187.619 44.2134 187.619 41.6187C187.619 39.024 189.719 36.9206 192.31 36.9206C194.9 36.9206 197 39.024 197 41.6187Z" fill="#5E9292"/>
<path d="M9.38095 60.0792C9.38095 62.6739 7.28095 64.7773 4.69047 64.7773C2.1 64.7773 0 62.6739 0 60.0792C0 57.4845 2.1 55.3811 4.69047 55.3811C7.28095 55.3811 9.38095 57.4845 9.38095 60.0792Z" fill="#5E9292"/>
<path d="M28.1428 60.0792C28.1428 62.6739 26.0428 64.7773 23.4524 64.7773C20.8619 64.7773 18.7619 62.6739 18.7619 60.0792C18.7619 57.4845 20.8619 55.3811 23.4524 55.3811C26.0428 55.3811 28.1428 57.4845 28.1428 60.0792Z" fill="#5E9292"/>
<path d="M46.9046 60.0794C46.9046 62.6741 44.8046 64.7775 42.2141 64.7775C39.6237 64.7775 37.5237 62.6741 37.5237 60.0794C37.5237 57.4847 39.6237 55.3813 42.2141 55.3813C44.8046 55.3813 46.9046 57.4847 46.9046 60.0794Z" fill="#5E9292"/>
<path d="M65.6666 60.0794C65.6666 62.6741 63.5666 64.7775 60.9762 64.7775C58.3857 64.7775 56.2857 62.6741 56.2857 60.0794C56.2857 57.4847 58.3857 55.3813 60.9762 55.3813C63.5666 55.3813 65.6666 57.4847 65.6666 60.0794Z" fill="#5E9292"/>
<path d="M84.4286 60.0794C84.4286 62.6741 82.3286 64.7775 79.7382 64.7775C77.1477 64.7775 75.0477 62.6741 75.0477 60.0794C75.0477 57.4847 77.1477 55.3813 79.7382 55.3813C82.3286 55.3813 84.4286 57.4847 84.4286 60.0794Z" fill="#5E9292"/>
<path d="M103.19 60.0794C103.19 62.6741 101.09 64.7775 98.4998 64.7775C95.9093 64.7775 93.8093 62.6741 93.8093 60.0794C93.8093 57.4847 95.9093 55.3813 98.4998 55.3813C101.09 55.3813 103.19 57.4847 103.19 60.0794Z" fill="#5E9292"/>
<path d="M121.952 60.0794C121.952 62.6741 119.852 64.7775 117.262 64.7775C114.671 64.7775 112.571 62.6741 112.571 60.0794C112.571 57.4847 114.671 55.3813 117.262 55.3813C119.852 55.3813 121.952 57.4847 121.952 60.0794Z" fill="#5E9292"/>
<path d="M140.714 60.0794C140.714 62.6741 138.614 64.7775 136.024 64.7775C133.433 64.7775 131.333 62.6741 131.333 60.0794C131.333 57.4847 133.433 55.3813 136.024 55.3813C138.614 55.3813 140.714 57.4847 140.714 60.0794Z" fill="#5E9292"/>
<path d="M159.476 60.0794C159.476 62.6741 157.376 64.7775 154.786 64.7775C152.195 64.7775 150.095 62.6741 150.095 60.0794C150.095 57.4847 152.195 55.3813 154.786 55.3813C157.376 55.3813 159.476 57.4847 159.476 60.0794Z" fill="#5E9292"/>
<path d="M178.238 60.0794C178.238 62.6741 176.138 64.7775 173.548 64.7775C170.957 64.7775 168.857 62.6741 168.857 60.0794C168.857 57.4847 170.957 55.3813 173.548 55.3813C176.138 55.3813 178.238 57.4847 178.238 60.0794Z" fill="#5E9292"/>
<path d="M197 60.0794C197 62.6741 194.9 64.7775 192.31 64.7775C189.719 64.7775 187.619 62.6741 187.619 60.0794C187.619 57.4847 189.719 55.3813 192.31 55.3813C194.9 55.3813 197 57.4847 197 60.0794Z" fill="#5E9292"/>
<path d="M9.38095 78.5396C9.38095 81.1343 7.28095 83.2377 4.69047 83.2377C2.1 83.2377 0 81.1343 0 78.5396C0 75.9449 2.1 73.8415 4.69047 73.8415C7.28095 73.8415 9.38095 75.9449 9.38095 78.5396Z" fill="#5E9292"/>
<path d="M28.1428 78.5396C28.1428 81.1343 26.0428 83.2377 23.4524 83.2377C20.8619 83.2377 18.7619 81.1343 18.7619 78.5396C18.7619 75.9449 20.8619 73.8415 23.4524 73.8415C26.0428 73.8415 28.1428 75.9449 28.1428 78.5396Z" fill="#5E9292"/>
<path d="M46.9046 78.5397C46.9046 81.1344 44.8046 83.2378 42.2141 83.2378C39.6237 83.2378 37.5237 81.1344 37.5237 78.5397C37.5237 75.945 39.6237 73.8416 42.2141 73.8416C44.8046 73.8416 46.9046 75.945 46.9046 78.5397Z" fill="#5E9292"/>
<path d="M65.6666 78.5397C65.6666 81.1344 63.5666 83.2378 60.9762 83.2378C58.3857 83.2378 56.2857 81.1344 56.2857 78.5397C56.2857 75.945 58.3857 73.8416 60.9762 73.8416C63.5666 73.8416 65.6666 75.945 65.6666 78.5397Z" fill="#5E9292"/>
<path d="M84.4286 78.5397C84.4286 81.1344 82.3286 83.2378 79.7382 83.2378C77.1477 83.2378 75.0477 81.1344 75.0477 78.5397C75.0477 75.945 77.1477 73.8416 79.7382 73.8416C82.3286 73.8416 84.4286 75.945 84.4286 78.5397Z" fill="#5E9292"/>
<path d="M103.19 78.5397C103.19 81.1344 101.09 83.2378 98.4998 83.2378C95.9093 83.2378 93.8093 81.1344 93.8093 78.5397C93.8093 75.945 95.9093 73.8416 98.4998 73.8416C101.09 73.8416 103.19 75.945 103.19 78.5397Z" fill="#5E9292"/>
<path d="M121.952 78.5397C121.952 81.1344 119.852 83.2378 117.262 83.2378C114.671 83.2378 112.571 81.1344 112.571 78.5397C112.571 75.945 114.671 73.8416 117.262 73.8416C119.852 73.8416 121.952 75.945 121.952 78.5397Z" fill="#5E9292"/>
<path d="M140.714 78.5397C140.714 81.1344 138.614 83.2378 136.024 83.2378C133.433 83.2378 131.333 81.1344 131.333 78.5397C131.333 75.945 133.433 73.8416 136.024 73.8416C138.614 73.8416 140.714 75.945 140.714 78.5397Z" fill="#5E9292"/>
<path d="M159.476 78.5397C159.476 81.1344 157.376 83.2378 154.786 83.2378C152.195 83.2378 150.095 81.1344 150.095 78.5397C150.095 75.945 152.195 73.8416 154.786 73.8416C157.376 73.8416 159.476 75.945 159.476 78.5397Z" fill="#5E9292"/>
<path d="M178.238 78.5397C178.238 81.1344 176.138 83.2378 173.548 83.2378C170.957 83.2378 168.857 81.1344 168.857 78.5397C168.857 75.945 170.957 73.8416 173.548 73.8416C176.138 73.8416 178.238 75.945 178.238 78.5397Z" fill="#5E9292"/>
<path d="M197 78.5397C197 81.1344 194.9 83.2378 192.31 83.2378C189.719 83.2378 187.619 81.1344 187.619 78.5397C187.619 75.945 189.719 73.8416 192.31 73.8416C194.9 73.8416 197 75.945 197 78.5397Z" fill="#5E9292"/>
<path d="M9.38095 97C9.38095 99.5947 7.28095 101.698 4.69047 101.698C2.1 101.698 0 99.5947 0 97C0 94.4053 2.1 92.3019 4.69047 92.3019C7.28095 92.3019 9.38095 94.4053 9.38095 97Z" fill="#5E9292"/>
<path d="M28.1428 97C28.1428 99.5947 26.0428 101.698 23.4524 101.698C20.8619 101.698 18.7619 99.5947 18.7619 97C18.7619 94.4053 20.8619 92.3019 23.4524 92.3019C26.0428 92.3019 28.1428 94.4053 28.1428 97Z" fill="#5E9292"/>
<path d="M46.9046 97C46.9046 99.5947 44.8046 101.698 42.2141 101.698C39.6237 101.698 37.5237 99.5947 37.5237 97C37.5237 94.4053 39.6237 92.3019 42.2141 92.3019C44.8046 92.3019 46.9046 94.4053 46.9046 97Z" fill="#5E9292"/>
<path d="M65.6666 97C65.6666 99.5947 63.5666 101.698 60.9762 101.698C58.3857 101.698 56.2857 99.5947 56.2857 97C56.2857 94.4053 58.3857 92.3019 60.9762 92.3019C63.5666 92.3019 65.6666 94.4053 65.6666 97Z" fill="#5E9292"/>
<path d="M84.4286 97C84.4286 99.5947 82.3286 101.698 79.7382 101.698C77.1477 101.698 75.0477 99.5947 75.0477 97C75.0477 94.4053 77.1477 92.3019 79.7382 92.3019C82.3286 92.3019 84.4286 94.4053 84.4286 97Z" fill="#5E9292"/>
<path d="M103.19 97C103.19 99.5947 101.09 101.698 98.4998 101.698C95.9093 101.698 93.8093 99.5947 93.8093 97C93.8093 94.4053 95.9093 92.3019 98.4998 92.3019C101.09 92.3019 103.19 94.4053 103.19 97Z" fill="#5E9292"/>
<path d="M121.952 97C121.952 99.5947 119.852 101.698 117.262 101.698C114.671 101.698 112.571 99.5947 112.571 97C112.571 94.4053 114.671 92.3019 117.262 92.3019C119.852 92.3019 121.952 94.4053 121.952 97Z" fill="#5E9292"/>
<path d="M140.714 97C140.714 99.5947 138.614 101.698 136.024 101.698C133.433 101.698 131.333 99.5947 131.333 97C131.333 94.4053 133.433 92.3019 136.024 92.3019C138.614 92.3019 140.714 94.4053 140.714 97Z" fill="#5E9292"/>
<path d="M159.476 97C159.476 99.5947 157.376 101.698 154.786 101.698C152.195 101.698 150.095 99.5947 150.095 97C150.095 94.4053 152.195 92.3019 154.786 92.3019C157.376 92.3019 159.476 94.4053 159.476 97Z" fill="#5E9292"/>
<path d="M178.238 97C178.238 99.5947 176.138 101.698 173.548 101.698C170.957 101.698 168.857 99.5947 168.857 97C168.857 94.4053 170.957 92.3019 173.548 92.3019C176.138 92.3019 178.238 94.4053 178.238 97Z" fill="#5E9292"/>
<path d="M197 97C197 99.5947 194.9 101.698 192.31 101.698C189.719 101.698 187.619 99.5947 187.619 97C187.619 94.4053 189.719 92.3019 192.31 92.3019C194.9 92.3019 197 94.4053 197 97Z" fill="#5E9292"/>
<path d="M9.38095 115.46C9.38095 118.055 7.28095 120.158 4.69047 120.158C2.1 120.158 0 118.055 0 115.46C0 112.866 2.1 110.762 4.69047 110.762C7.28095 110.762 9.38095 112.866 9.38095 115.46Z" fill="#5E9292"/>
<path d="M28.1428 115.46C28.1428 118.055 26.0428 120.158 23.4524 120.158C20.8619 120.158 18.7619 118.055 18.7619 115.46C18.7619 112.866 20.8619 110.762 23.4524 110.762C26.0428 110.762 28.1428 112.866 28.1428 115.46Z" fill="#5E9292"/>
<path d="M46.9046 115.46C46.9046 118.055 44.8046 120.158 42.2141 120.158C39.6237 120.158 37.5237 118.055 37.5237 115.46C37.5237 112.866 39.6237 110.762 42.2141 110.762C44.8046 110.762 46.9046 112.866 46.9046 115.46Z" fill="#5E9292"/>
<path d="M65.6666 115.46C65.6666 118.055 63.5666 120.158 60.9762 120.158C58.3857 120.158 56.2857 118.055 56.2857 115.46C56.2857 112.866 58.3857 110.762 60.9762 110.762C63.5666 110.762 65.6666 112.866 65.6666 115.46Z" fill="#5E9292"/>
<path d="M84.4286 115.46C84.4286 118.055 82.3286 120.158 79.7382 120.158C77.1477 120.158 75.0477 118.055 75.0477 115.46C75.0477 112.866 77.1477 110.762 79.7382 110.762C82.3286 110.762 84.4286 112.866 84.4286 115.46Z" fill="#5E9292"/>
<path d="M103.19 115.46C103.19 118.055 101.09 120.158 98.4998 120.158C95.9093 120.158 93.8093 118.055 93.8093 115.46C93.8093 112.866 95.9093 110.762 98.4998 110.762C101.09 110.762 103.19 112.866 103.19 115.46Z" fill="#5E9292"/>
<path d="M121.952 115.46C121.952 118.055 119.852 120.158 117.262 120.158C114.671 120.158 112.571 118.055 112.571 115.46C112.571 112.866 114.671 110.762 117.262 110.762C119.852 110.762 121.952 112.866 121.952 115.46Z" fill="#5E9292"/>
<path d="M140.714 115.46C140.714 118.055 138.614 120.158 136.024 120.158C133.433 120.158 131.333 118.055 131.333 115.46C131.333 112.866 133.433 110.762 136.024 110.762C138.614 110.762 140.714 112.866 140.714 115.46Z" fill="#5E9292"/>
<path d="M159.476 115.46C159.476 118.055 157.376 120.158 154.786 120.158C152.195 120.158 150.095 118.055 150.095 115.46C150.095 112.866 152.195 110.762 154.786 110.762C157.376 110.762 159.476 112.866 159.476 115.46Z" fill="#5E9292"/>
<path d="M178.238 115.46C178.238 118.055 176.138 120.158 173.548 120.158C170.957 120.158 168.857 118.055 168.857 115.46C168.857 112.866 170.957 110.762 173.548 110.762C176.138 110.762 178.238 112.866 178.238 115.46Z" fill="#5E9292"/>
<path d="M197 115.46C197 118.055 194.9 120.158 192.31 120.158C189.719 120.158 187.619 118.055 187.619 115.46C187.619 112.866 189.719 110.762 192.31 110.762C194.9 110.762 197 112.866 197 115.46Z" fill="#5E9292"/>
<path d="M9.38095 133.921C9.38095 136.515 7.28095 138.619 4.69047 138.619C2.1 138.619 0 136.515 0 133.921C0 131.326 2.1 129.223 4.69047 129.223C7.28095 129.223 9.38095 131.326 9.38095 133.921Z" fill="#5E9292"/>
<path d="M28.1428 133.921C28.1428 136.515 26.0428 138.619 23.4524 138.619C20.8619 138.619 18.7619 136.515 18.7619 133.921C18.7619 131.326 20.8619 129.223 23.4524 129.223C26.0428 129.223 28.1428 131.326 28.1428 133.921Z" fill="#5E9292"/>
<path d="M46.9046 133.921C46.9046 136.515 44.8046 138.619 42.2141 138.619C39.6237 138.619 37.5237 136.515 37.5237 133.921C37.5237 131.326 39.6237 129.223 42.2141 129.223C44.8046 129.223 46.9046 131.326 46.9046 133.921Z" fill="#5E9292"/>
<path d="M65.6666 133.921C65.6666 136.515 63.5666 138.619 60.9762 138.619C58.3857 138.619 56.2857 136.515 56.2857 133.921C56.2857 131.326 58.3857 129.223 60.9762 129.223C63.5666 129.223 65.6666 131.326 65.6666 133.921Z" fill="#5E9292"/>
<path d="M84.4286 133.921C84.4286 136.515 82.3286 138.619 79.7382 138.619C77.1477 138.619 75.0477 136.515 75.0477 133.921C75.0477 131.326 77.1477 129.223 79.7382 129.223C82.3286 129.223 84.4286 131.326 84.4286 133.921Z" fill="#5E9292"/>
<path d="M103.19 133.921C103.19 136.515 101.09 138.619 98.4998 138.619C95.9093 138.619 93.8093 136.515 93.8093 133.921C93.8093 131.326 95.9093 129.223 98.4998 129.223C101.09 129.223 103.19 131.326 103.19 133.921Z" fill="#5E9292"/>
<path d="M121.952 133.921C121.952 136.515 119.852 138.619 117.262 138.619C114.671 138.619 112.571 136.515 112.571 133.921C112.571 131.326 114.671 129.223 117.262 129.223C119.852 129.223 121.952 131.326 121.952 133.921Z" fill="#5E9292"/>
<path d="M140.714 133.921C140.714 136.515 138.614 138.619 136.024 138.619C133.433 138.619 131.333 136.515 131.333 133.921C131.333 131.326 133.433 129.223 136.024 129.223C138.614 129.223 140.714 131.326 140.714 133.921Z" fill="#5E9292"/>
<path d="M159.476 133.921C159.476 136.515 157.376 138.619 154.786 138.619C152.195 138.619 150.095 136.515 150.095 133.921C150.095 131.326 152.195 129.223 154.786 129.223C157.376 129.223 159.476 131.326 159.476 133.921Z" fill="#5E9292"/>
<path d="M178.238 133.921C178.238 136.515 176.138 138.619 173.548 138.619C170.957 138.619 168.857 136.515 168.857 133.921C168.857 131.326 170.957 129.223 173.548 129.223C176.138 129.223 178.238 131.326 178.238 133.921Z" fill="#5E9292"/>
<path d="M197 133.921C197 136.515 194.9 138.619 192.31 138.619C189.719 138.619 187.619 136.515 187.619 133.921C187.619 131.326 189.719 129.223 192.31 129.223C194.9 129.223 197 131.326 197 133.921Z" fill="#5E9292"/>
<path d="M9.38095 152.381C9.38095 154.976 7.28095 157.079 4.69047 157.079C2.1 157.079 0 154.976 0 152.381C0 149.786 2.1 147.683 4.69047 147.683C7.28095 147.683 9.38095 149.786 9.38095 152.381Z" fill="#5E9292"/>
<path d="M28.1428 152.381C28.1428 154.976 26.0428 157.079 23.4524 157.079C20.8619 157.079 18.7619 154.976 18.7619 152.381C18.7619 149.786 20.8619 147.683 23.4524 147.683C26.0428 147.683 28.1428 149.786 28.1428 152.381Z" fill="#5E9292"/>
<path d="M46.9046 152.381C46.9046 154.976 44.8046 157.079 42.2141 157.079C39.6237 157.079 37.5237 154.976 37.5237 152.381C37.5237 149.787 39.6237 147.683 42.2141 147.683C44.8046 147.683 46.9046 149.787 46.9046 152.381Z" fill="#5E9292"/>
<path d="M65.6666 152.381C65.6666 154.976 63.5666 157.079 60.9762 157.079C58.3857 157.079 56.2857 154.976 56.2857 152.381C56.2857 149.787 58.3857 147.683 60.9762 147.683C63.5666 147.683 65.6666 149.787 65.6666 152.381Z" fill="#5E9292"/>
<path d="M84.4286 152.381C84.4286 154.976 82.3286 157.079 79.7382 157.079C77.1477 157.079 75.0477 154.976 75.0477 152.381C75.0477 149.787 77.1477 147.683 79.7382 147.683C82.3286 147.683 84.4286 149.787 84.4286 152.381Z" fill="#5E9292"/>
<path d="M103.19 152.381C103.19 154.976 101.09 157.079 98.4998 157.079C95.9093 157.079 93.8093 154.976 93.8093 152.381C93.8093 149.787 95.9093 147.683 98.4998 147.683C101.09 147.683 103.19 149.787 103.19 152.381Z" fill="#5E9292"/>
<path d="M121.952 152.381C121.952 154.976 119.852 157.079 117.262 157.079C114.671 157.079 112.571 154.976 112.571 152.381C112.571 149.787 114.671 147.683 117.262 147.683C119.852 147.683 121.952 149.787 121.952 152.381Z" fill="#5E9292"/>
<path d="M140.714 152.381C140.714 154.976 138.614 157.079 136.024 157.079C133.433 157.079 131.333 154.976 131.333 152.381C131.333 149.787 133.433 147.683 136.024 147.683C138.614 147.683 140.714 149.787 140.714 152.381Z" fill="#5E9292"/>
<path d="M159.476 152.381C159.476 154.976 157.376 157.079 154.786 157.079C152.195 157.079 150.095 154.976 150.095 152.381C150.095 149.787 152.195 147.683 154.786 147.683C157.376 147.683 159.476 149.787 159.476 152.381Z" fill="#5E9292"/>
<path d="M178.238 152.381C178.238 154.976 176.138 157.079 173.548 157.079C170.957 157.079 168.857 154.976 168.857 152.381C168.857 149.787 170.957 147.683 173.548 147.683C176.138 147.683 178.238 149.787 178.238 152.381Z" fill="#5E9292"/>
<path d="M197 152.381C197 154.976 194.9 157.079 192.31 157.079C189.719 157.079 187.619 154.976 187.619 152.381C187.619 149.787 189.719 147.683 192.31 147.683C194.9 147.683 197 149.787 197 152.381Z" fill="#5E9292"/>
<path d="M9.38095 170.841C9.38095 173.436 7.28095 175.54 4.69047 175.54C2.1 175.54 0 173.436 0 170.841C0 168.247 2.1 166.143 4.69047 166.143C7.28095 166.143 9.38095 168.247 9.38095 170.841Z" fill="#5E9292"/>
<path d="M28.143 170.842C28.143 173.436 26.043 175.54 23.4525 175.54C20.862 175.54 18.762 173.436 18.762 170.842C18.762 168.247 20.862 166.143 23.4525 166.143C26.043 166.143 28.143 168.247 28.143 170.842Z" fill="#5E9292"/>
<path d="M46.9046 170.842C46.9046 173.436 44.8046 175.54 42.2141 175.54C39.6237 175.54 37.5237 173.436 37.5237 170.842C37.5237 168.247 39.6237 166.143 42.2141 166.143C44.8046 166.143 46.9046 168.247 46.9046 170.842Z" fill="#5E9292"/>
<path d="M65.6666 170.842C65.6666 173.436 63.5666 175.54 60.9762 175.54C58.3857 175.54 56.2857 173.436 56.2857 170.842C56.2857 168.247 58.3857 166.143 60.9762 166.143C63.5666 166.143 65.6666 168.247 65.6666 170.842Z" fill="#5E9292"/>
<path d="M84.4286 170.842C84.4286 173.436 82.3286 175.54 79.7382 175.54C77.1477 175.54 75.0477 173.436 75.0477 170.842C75.0477 168.247 77.1477 166.143 79.7382 166.143C82.3286 166.143 84.4286 168.247 84.4286 170.842Z" fill="#5E9292"/>
<path d="M103.19 170.842C103.19 173.436 101.09 175.54 98.4998 175.54C95.9093 175.54 93.8093 173.436 93.8093 170.842C93.8093 168.247 95.9093 166.143 98.4998 166.143C101.09 166.143 103.19 168.247 103.19 170.842Z" fill="#5E9292"/>
<path d="M121.952 170.842C121.952 173.436 119.852 175.54 117.262 175.54C114.671 175.54 112.571 173.436 112.571 170.842C112.571 168.247 114.671 166.143 117.262 166.143C119.852 166.143 121.952 168.247 121.952 170.842Z" fill="#5E9292"/>
<path d="M140.714 170.842C140.714 173.436 138.614 175.54 136.024 175.54C133.433 175.54 131.333 173.436 131.333 170.842C131.333 168.247 133.433 166.143 136.024 166.143C138.614 166.143 140.714 168.247 140.714 170.842Z" fill="#5E9292"/>
<path d="M159.476 170.842C159.476 173.436 157.376 175.54 154.786 175.54C152.195 175.54 150.095 173.436 150.095 170.842C150.095 168.247 152.195 166.143 154.786 166.143C157.376 166.143 159.476 168.247 159.476 170.842Z" fill="#5E9292"/>
<path d="M178.238 170.842C178.238 173.436 176.138 175.54 173.548 175.54C170.957 175.54 168.857 173.436 168.857 170.842C168.857 168.247 170.957 166.143 173.548 166.143C176.138 166.143 178.238 168.247 178.238 170.842Z" fill="#5E9292"/>
<path d="M197 170.842C197 173.436 194.9 175.54 192.31 175.54C189.719 175.54 187.619 173.436 187.619 170.842C187.619 168.247 189.719 166.143 192.31 166.143C194.9 166.143 197 168.247 197 170.842Z" fill="#5E9292"/>
<path d="M9.38095 189.302C9.38095 191.897 7.28095 194 4.69047 194C2.1 194 0 191.897 0 189.302C0 186.707 2.1 184.604 4.69047 184.604C7.28095 184.604 9.38095 186.707 9.38095 189.302Z" fill="#5E9292"/>
<path d="M28.1428 189.302C28.1428 191.897 26.0428 194 23.4524 194C20.8619 194 18.7619 191.897 18.7619 189.302C18.7619 186.707 20.8619 184.604 23.4524 184.604C26.0428 184.604 28.1428 186.707 28.1428 189.302Z" fill="#5E9292"/>
<path d="M46.9046 189.302C46.9046 191.897 44.8046 194 42.2141 194C39.6237 194 37.5237 191.897 37.5237 189.302C37.5237 186.707 39.6237 184.604 42.2141 184.604C44.8046 184.604 46.9046 186.707 46.9046 189.302Z" fill="#5E9292"/>
<path d="M65.6666 189.302C65.6666 191.897 63.5666 194 60.9762 194C58.3857 194 56.2857 191.897 56.2857 189.302C56.2857 186.707 58.3857 184.604 60.9762 184.604C63.5666 184.604 65.6666 186.707 65.6666 189.302Z" fill="#5E9292"/>
<path d="M84.4286 189.302C84.4286 191.897 82.3286 194 79.7382 194C77.1477 194 75.0477 191.897 75.0477 189.302C75.0477 186.707 77.1477 184.604 79.7382 184.604C82.3286 184.604 84.4286 186.707 84.4286 189.302Z" fill="#5E9292"/>
<path d="M103.19 189.302C103.19 191.897 101.09 194 98.4998 194C95.9093 194 93.8093 191.897 93.8093 189.302C93.8093 186.707 95.9093 184.604 98.4998 184.604C101.09 184.604 103.19 186.707 103.19 189.302Z" fill="#5E9292"/>
<path d="M121.952 189.302C121.952 191.897 119.852 194 117.262 194C114.671 194 112.571 191.897 112.571 189.302C112.571 186.707 114.671 184.604 117.262 184.604C119.852 184.604 121.952 186.707 121.952 189.302Z" fill="#5E9292"/>
<path d="M140.714 189.302C140.714 191.897 138.614 194 136.024 194C133.433 194 131.333 191.897 131.333 189.302C131.333 186.707 133.433 184.604 136.024 184.604C138.614 184.604 140.714 186.707 140.714 189.302Z" fill="#5E9292"/>
<path d="M159.476 189.302C159.476 191.897 157.376 194 154.786 194C152.195 194 150.095 191.897 150.095 189.302C150.095 186.707 152.195 184.604 154.786 184.604C157.376 184.604 159.476 186.707 159.476 189.302Z" fill="#5E9292"/>
<path d="M178.238 189.302C178.238 191.897 176.138 194 173.548 194C170.957 194 168.857 191.897 168.857 189.302C168.857 186.707 170.957 184.604 173.548 184.604C176.138 184.604 178.238 186.707 178.238 189.302Z" fill="#5E9292"/>
<path d="M197 189.302C197 191.897 194.9 194 192.31 194C189.719 194 187.619 191.897 187.619 189.302C187.619 186.707 189.719 184.604 192.31 184.604C194.9 184.604 197 186.707 197 189.302Z" fill="#5E9292"/>
</svg>
