<svg width="843" height="206" viewBox="0 0 843 206" fill="none" xmlns="http://www.w3.org/2000/svg">
<g opacity="0.25">
<line x1="4.75854" y1="203.015" x2="78.7585" y2="194.015" stroke="#639B9C" stroke-width="4"/>
<line x1="78.1391" y1="194.195" x2="143.139" y2="163.195" stroke="#639B9C" stroke-width="4"/>
<line x1="143.763" y1="163.014" x2="235.763" y2="152.014" stroke="#639B9C" stroke-width="4"/>
<line x1="236.711" y1="152.131" x2="307.711" y2="179.131" stroke="#639B9C" stroke-width="4"/>
<line x1="305.923" y1="179.315" x2="366.923" y2="140.315" stroke="#639B9C" stroke-width="4"/>
<line x1="365.723" y1="138.985" x2="398.723" y2="194.985" stroke="#639B9C" stroke-width="4"/>
<line x1="397.376" y1="194.036" x2="444.376" y2="203.036" stroke="#639B9C" stroke-width="4"/>
<line x1="438.307" y1="203.124" x2="530.307" y2="169.124" stroke="#639B9C" stroke-width="4"/>
<line x1="527.601" y1="169.57" x2="619.601" y2="79.5703" stroke="#639B9C" stroke-width="4"/>
<line x1="620.762" y1="79.0142" x2="737.762" y2="65.0142" stroke="#639B9C" stroke-width="4"/>
<line x1="736.966" y1="65.288" x2="837.966" y2="4.28802" stroke="#639B9C" stroke-width="4"/>
<circle cx="3.5" cy="202.5" r="3.5" fill="#82AFB0"/>
<circle cx="75.5" cy="194.5" r="3.5" fill="#82AFB0"/>
<circle cx="144.5" cy="162.5" r="3.5" fill="#82AFB0"/>
<circle cx="235.5" cy="152.5" r="3.5" fill="#82AFB0"/>
<circle cx="306.5" cy="178.5" r="3.5" fill="#82AFB0"/>
<circle cx="366.5" cy="141.5" r="3.5" fill="#82AFB0"/>
<circle cx="399.5" cy="194.5" r="3.5" fill="#82AFB0"/>
<circle cx="441.5" cy="202.5" r="3.5" fill="#82AFB0"/>
<circle cx="528.5" cy="169.5" r="3.5" fill="#82AFB0"/>
<circle cx="620.5" cy="79.5" r="3.5" fill="#82AFB0"/>
<circle cx="738.5" cy="64.5" r="3.5" fill="#82AFB0"/>
<circle cx="839.5" cy="3.5" r="3.5" fill="#82AFB0"/>
</g>
</svg>
