<svg width="41" height="28" viewBox="0 0 41 28" fill="none" xmlns="http://www.w3.org/2000/svg">
<path d="M4.07218 20.0983L5.03386 20.0618L12.3218 10.7364C12.0524 10.1857 11.95 9.57428 12.0254 8.96578C12.1007 8.35729 12.3511 7.77386 12.7504 7.27608C13.9914 5.66717 16.364 5.27094 18.0605 6.38926C19.2084 7.12016 19.7418 8.34401 19.5903 9.52257L25.1705 13.1504L26.0918 12.8724C26.4307 12.8158 26.7508 12.7623 27.0535 12.836L32.7467 5.55113C32.5716 5.31422 32.5226 5.02079 32.4707 4.71009C32.3178 3.79451 32.568 2.85017 33.1661 2.08481C33.7643 1.31945 34.6614 0.79576 35.6602 0.628952C36.659 0.462144 37.6777 0.66588 38.4921 1.19534C39.3065 1.7248 39.8499 2.53661 40.0028 3.45219C40.1557 4.36777 39.9056 5.31211 39.3074 6.07747C38.7093 6.84283 37.8121 7.36652 36.8133 7.53333C36.4744 7.58993 36.1543 7.6434 35.8516 7.56974L30.1584 14.8546C30.3334 15.0915 30.3825 15.3849 30.4343 15.6956C30.5872 16.6112 30.3371 17.5555 29.739 18.3209C29.1408 19.0862 28.2437 19.6099 27.2449 19.7767C26.246 19.9436 25.2274 19.7398 24.413 19.2104C23.5986 18.6809 23.0552 17.8691 22.9023 16.9535L22.89 16.0684L17.3098 12.4406C16.7274 12.662 16.0495 12.7753 15.4268 12.7551L8.13879 22.0805L8.41474 22.9215C8.56764 23.8371 8.31751 24.7814 7.71937 25.5468C7.12122 26.3121 6.22406 26.8358 5.22525 27.0026C4.22644 27.1694 3.20779 26.9657 2.39341 26.4362C1.57902 25.9068 1.0356 25.095 0.88269 24.1794C0.729782 23.2638 0.979914 22.3195 1.57806 21.5541C2.1762 20.7888 3.07336 20.2651 4.07218 20.0983Z" fill="white"/>
</svg>
